<mxfile host="app.diagrams.net" modified="2024-06-14T11:43:04.627Z" agent="Mozilla/5.0 (Macintosh; Intel Mac OS X 10_15_7) AppleWebKit/537.36 (KHTML, like Gecko) Chrome/124.0.0.0 Safari/537.36 Edg/124.0.0.0" version="24.5.4" etag="SOAP23LkdojHKefvPOkl" type="github">
  <diagram name="第 1 页" id="zUolEhYW2bssv5hNoH0H">
    <mxGraphModel>
      <root>
        <mxCell id="0" />
        <mxCell id="1" parent="0" />
      </root>
    </mxGraphModel>
  </diagram>
</mxfile>
